<svg role="presentation" focusable="false" width="32" height="32" viewBox="0 0 28 28" xmlns="http://www.w3.org/2000/svg">
  <path d="m24,20.31c-.5-.54-1.07-1.06-1.7-1.53-.64-.49-3.58-1.67-5.67-2.16-.02-.33.02-.75.06-1.13.01-.07.01-.13.02-.19,1.17-.78,1.89-2.09,1.89-3.52v-3.06c0-2.29-1.66-3.64-3.31-3.97-1.42-.28-1.66-.25-1.67-.25-2.33,0-4.22,1.89-4.22,4.22v3.06c0,1.43.72,2.74,1.89,3.52.01.06.01.12.02.19.04.38.08.79.06,1.12-1.97.39-4.11.98-5.67,2.17-.63.47-1.2.99-1.7,1.53-.52.55-.65,1.33-.35,2.04.3.69.94,1.13,1.68,1.15.38.05,2.57.35,4.96.35,1.33,0,2.71-.09,3.88-.37,3.12-.74,8.28,0,8.33.01l.11.01c.77,0,1.43-.44,1.74-1.15.3-.71.17-1.49-.35-2.04Zm-18.5,1.7l-.11-.01c-.23,0-.33-.17-.36-.25-.03-.07-.09-.25.07-.42.44-.48.95-.93,1.51-1.35,1.44-1.11,3.6-1.63,5.53-1.99l.41-.08.15-.39c.25-.65.18-1.43.1-2.17-.01-.19-.03-.37-.04-.55l-.03-.42-.37-.19c-.9-.48-1.46-1.4-1.46-2.41v-3.06c0-1.5,1.22-2.72,2.73-2.72.01,0,.29.01,1.37.22.97.2,2.1.96,2.1,2.5v3.06c0,1.01-.56,1.93-1.46,2.41l-.37.19-.03.42c-.01.18-.03.36-.04.55-.08.74-.15,1.52.1,2.17l.15.39.41.08c1.94.36,5.1,1.65,5.54,1.99.55.42,1.06.87,1.51,1.35.15.17.09.35.06.42-.03.07-.12.23-.32.25-.67-.09-5.59-.75-8.82.02-3.12.74-8.28,0-8.33-.01Z" fill="currentColor" stroke="currentColor" stroke-width="0" stroke-linecap="round" stroke-linejoin="round"/>
</svg>
